<?xml version="1.0" encoding="UTF-8" standalone="no"?>
<!DOCTYPE svg PUBLIC "-//W3C//DTD SVG 1.1//EN"
 "http://www.w3.org/Graphics/SVG/1.1/DTD/svg11.dtd">
<!-- Generated by graphviz version 2.47.0 (20210316.0004)
 -->
<!-- Title: dependencies Pages: 1 -->
<svg width="801pt" height="211pt"
 viewBox="0.00 0.00 801.00 211.00" xmlns="http://www.w3.org/2000/svg" xmlns:xlink="http://www.w3.org/1999/xlink">
<g id="graph0" class="graph" transform="scale(1 1) rotate(0) translate(4 207)">
<title>dependencies</title>
<polygon fill="white" stroke="transparent" points="-4,4 -4,-207 797,-207 797,4 -4,4"/>
<text text-anchor="start" x="375.51" y="-42.4" font-family="Times-12" font-weight="bold" font-size="14.00">Legend</text>
<polygon fill="#ffffb3" stroke="transparent" points="162.5,-10 162.5,-30 182.5,-30 182.5,-10 162.5,-10"/>
<text text-anchor="start" x="186.13" y="-15.4" font-family="Times-12" font-size="14.00"> &#160;Declarations</text>
<polygon fill="#8dd3c7" stroke="transparent" points="275.5,-10 275.5,-30 295.5,-30 295.5,-10 275.5,-10"/>
<text text-anchor="start" x="299.23" y="-15.4" font-family="Times-12" font-size="14.00"> &#160;Module</text>
<polygon fill="#80b1d3" stroke="transparent" points="361.5,-10 361.5,-30 381.5,-30 381.5,-10 361.5,-10"/>
<text text-anchor="start" x="385.28" y="-15.4" font-family="Times-12" font-size="14.00"> &#160;Bootstrap</text>
<polygon fill="#fdb462" stroke="transparent" points="458.5,-10 458.5,-30 478.5,-30 478.5,-10 458.5,-10"/>
<text text-anchor="start" x="482.17" y="-15.4" font-family="Times-12" font-size="14.00"> &#160;Providers</text>
<polygon fill="#fb8072" stroke="transparent" points="554.5,-10 554.5,-30 574.5,-30 574.5,-10 554.5,-10"/>
<text text-anchor="start" x="578.23" y="-15.4" font-family="Times-12" font-size="14.00"> &#160;Exports</text>
<g id="clust1" class="cluster">
<title>cluster_AuthModule</title>
<polygon fill="none" stroke="black" stroke-dasharray="1,5" points="8,-70 8,-195 785,-195 785,-70 8,-70"/>
</g>
<g id="clust6" class="cluster">
<title>cluster_AuthModule_providers</title>
<polygon fill="none" stroke="black" points="16,-78 16,-130 777,-130 777,-78 16,-78"/>
</g>
<!-- AuthGuard -->
<g id="node1" class="node">
<title>AuthGuard</title>
<ellipse fill="#fdb462" stroke="black" cx="715" cy="-104" rx="54.46" ry="18"/>
<text text-anchor="middle" x="715" y="-99.8" font-family="Times,serif" font-size="14.00">AuthGuard</text>
</g>
<!-- AuthModule -->
<g id="node6" class="node">
<title>AuthModule</title>
<polygon fill="#8dd3c7" stroke="black" points="492.55,-187 489.55,-191 468.55,-191 465.55,-187 405.45,-187 405.45,-151 492.55,-151 492.55,-187"/>
<text text-anchor="middle" x="449" y="-164.8" font-family="Times,serif" font-size="14.00">AuthModule</text>
</g>
<!-- AuthGuard&#45;&gt;AuthModule -->
<g id="edge1" class="edge">
<title>AuthGuard&#45;&gt;AuthModule</title>
<path fill="none" stroke="black" d="M715,-122.28C715,-143.32 715,-175 715,-175 715,-175 502.63,-175 502.63,-175"/>
<polygon fill="black" stroke="black" points="502.63,-171.5 492.63,-175 502.63,-178.5 502.63,-171.5"/>
</g>
<!-- AuthService -->
<g id="node2" class="node">
<title>AuthService</title>
<ellipse fill="#fdb462" stroke="black" cx="583" cy="-104" rx="59.11" ry="18"/>
<text text-anchor="middle" x="583" y="-99.8" font-family="Times,serif" font-size="14.00">AuthService</text>
</g>
<!-- AuthService&#45;&gt;AuthModule -->
<g id="edge2" class="edge">
<title>AuthService&#45;&gt;AuthModule</title>
<path fill="none" stroke="black" d="M583,-122.02C583,-139.37 583,-163 583,-163 583,-163 502.88,-163 502.88,-163"/>
<polygon fill="black" stroke="black" points="502.88,-159.5 492.88,-163 502.88,-166.5 502.88,-159.5"/>
</g>
<!-- JwtStrategy -->
<g id="node3" class="node">
<title>JwtStrategy</title>
<ellipse fill="#fdb462" stroke="black" cx="449" cy="-104" rx="56.76" ry="18"/>
<text text-anchor="middle" x="449" y="-99.8" font-family="Times,serif" font-size="14.00">JwtStrategy</text>
</g>
<!-- JwtStrategy&#45;&gt;AuthModule -->
<g id="edge3" class="edge">
<title>JwtStrategy&#45;&gt;AuthModule</title>
<path fill="none" stroke="black" d="M449,-122.11C449,-122.11 449,-140.99 449,-140.99"/>
<polygon fill="black" stroke="black" points="445.5,-140.99 449,-150.99 452.5,-140.99 445.5,-140.99"/>
</g>
<!-- PrismaAuthRepository -->
<g id="node4" class="node">
<title>PrismaAuthRepository</title>
<ellipse fill="#fdb462" stroke="black" cx="275" cy="-104" rx="99.6" ry="18"/>
<text text-anchor="middle" x="275" y="-99.8" font-family="Times,serif" font-size="14.00">PrismaAuthRepository</text>
</g>
<!-- PrismaAuthRepository&#45;&gt;AuthModule -->
<g id="edge4" class="edge">
<title>PrismaAuthRepository&#45;&gt;AuthModule</title>
<path fill="none" stroke="black" d="M275,-122.02C275,-139.37 275,-163 275,-163 275,-163 395.09,-163 395.09,-163"/>
<polygon fill="black" stroke="black" points="395.09,-166.5 405.09,-163 395.09,-159.5 395.09,-166.5"/>
</g>
<!-- PrismaService -->
<g id="node5" class="node">
<title>PrismaService</title>
<ellipse fill="#fdb462" stroke="black" cx="91" cy="-104" rx="66.63" ry="18"/>
<text text-anchor="middle" x="91" y="-99.8" font-family="Times,serif" font-size="14.00">PrismaService</text>
</g>
<!-- PrismaService&#45;&gt;AuthModule -->
<g id="edge5" class="edge">
<title>PrismaService&#45;&gt;AuthModule</title>
<path fill="none" stroke="black" d="M91,-122.28C91,-143.32 91,-175 91,-175 91,-175 395.1,-175 395.1,-175"/>
<polygon fill="black" stroke="black" points="395.1,-178.5 405.1,-175 395.1,-171.5 395.1,-178.5"/>
</g>
</g>
</svg>
