<?xml version="1.0" encoding="UTF-8" standalone="no"?>
<!DOCTYPE svg PUBLIC "-//W3C//DTD SVG 1.1//EN"
 "http://www.w3.org/Graphics/SVG/1.1/DTD/svg11.dtd">
<!-- Generated by graphviz version 2.47.0 (20210316.0004)
 -->
<!-- Title: dependencies Pages: 1 -->
<svg width="1040pt" height="211pt"
 viewBox="0.00 0.00 1040.00 211.00" xmlns="http://www.w3.org/2000/svg" xmlns:xlink="http://www.w3.org/1999/xlink">
<g id="graph0" class="graph" transform="scale(1 1) rotate(0) translate(4 207)">
<title>dependencies</title>
<polygon fill="white" stroke="transparent" points="-4,4 -4,-207 1036,-207 1036,4 -4,4"/>
<text text-anchor="start" x="495.01" y="-42.4" font-family="Times-12" font-weight="bold" font-size="14.00">Legend</text>
<polygon fill="#ffffb3" stroke="transparent" points="282,-10 282,-30 302,-30 302,-10 282,-10"/>
<text text-anchor="start" x="305.63" y="-15.4" font-family="Times-12" font-size="14.00"> &#160;Declarations</text>
<polygon fill="#8dd3c7" stroke="transparent" points="395,-10 395,-30 415,-30 415,-10 395,-10"/>
<text text-anchor="start" x="418.73" y="-15.4" font-family="Times-12" font-size="14.00"> &#160;Module</text>
<polygon fill="#80b1d3" stroke="transparent" points="481,-10 481,-30 501,-30 501,-10 481,-10"/>
<text text-anchor="start" x="504.78" y="-15.4" font-family="Times-12" font-size="14.00"> &#160;Bootstrap</text>
<polygon fill="#fdb462" stroke="transparent" points="578,-10 578,-30 598,-30 598,-10 578,-10"/>
<text text-anchor="start" x="601.67" y="-15.4" font-family="Times-12" font-size="14.00"> &#160;Providers</text>
<polygon fill="#fb8072" stroke="transparent" points="674,-10 674,-30 694,-30 694,-10 674,-10"/>
<text text-anchor="start" x="697.73" y="-15.4" font-family="Times-12" font-size="14.00"> &#160;Exports</text>
<g id="clust1" class="cluster">
<title>cluster_PaymentModule</title>
<polygon fill="none" stroke="black" stroke-dasharray="1,5" points="8,-70 8,-195 1024,-195 1024,-70 8,-70"/>
</g>
<g id="clust3" class="cluster">
<title>cluster_PaymentModule_imports</title>
<polygon fill="none" stroke="black" points="890,-78 890,-130 1016,-130 1016,-78 890,-78"/>
</g>
<g id="clust6" class="cluster">
<title>cluster_PaymentModule_providers</title>
<polygon fill="none" stroke="black" points="16,-78 16,-130 882,-130 882,-78 16,-78"/>
</g>
<!-- DatabaseModule -->
<g id="node1" class="node">
<title>DatabaseModule</title>
<polygon fill="#8dd3c7" stroke="black" points="1008.35,-122 1005.35,-126 984.35,-126 981.35,-122 897.65,-122 897.65,-86 1008.35,-86 1008.35,-122"/>
<text text-anchor="middle" x="953" y="-99.8" font-family="Times,serif" font-size="14.00">DatabaseModule</text>
</g>
<!-- PaymentModule -->
<g id="node2" class="node">
<title>PaymentModule</title>
<polygon fill="#8dd3c7" stroke="black" points="589.04,-187 586.04,-191 565.04,-191 562.04,-187 480.96,-187 480.96,-151 589.04,-151 589.04,-187"/>
<text text-anchor="middle" x="535" y="-164.8" font-family="Times,serif" font-size="14.00">PaymentModule</text>
</g>
<!-- DatabaseModule&#45;&gt;PaymentModule -->
<g id="edge1" class="edge">
<title>DatabaseModule&#45;&gt;PaymentModule</title>
<path fill="none" stroke="black" d="M953,-122.28C953,-143.32 953,-175 953,-175 953,-175 599.22,-175 599.22,-175"/>
<polygon fill="black" stroke="black" points="599.22,-171.5 589.22,-175 599.22,-178.5 599.22,-171.5"/>
</g>
<!-- CreatePaymentUseCase -->
<g id="node3" class="node">
<title>CreatePaymentUseCase</title>
<ellipse fill="#fdb462" stroke="black" cx="770" cy="-104" rx="103.63" ry="18"/>
<text text-anchor="middle" x="770" y="-99.8" font-family="Times,serif" font-size="14.00">CreatePaymentUseCase</text>
</g>
<!-- CreatePaymentUseCase&#45;&gt;PaymentModule -->
<g id="edge2" class="edge">
<title>CreatePaymentUseCase&#45;&gt;PaymentModule</title>
<path fill="none" stroke="black" d="M770,-122.02C770,-139.37 770,-163 770,-163 770,-163 599.21,-163 599.21,-163"/>
<polygon fill="black" stroke="black" points="599.21,-159.5 589.21,-163 599.21,-166.5 599.21,-159.5"/>
</g>
<!-- PrismaAccountRepository -->
<g id="node4" class="node">
<title>PrismaAccountRepository</title>
<ellipse fill="#fdb462" stroke="black" cx="535" cy="-104" rx="112.9" ry="18"/>
<text text-anchor="middle" x="535" y="-99.8" font-family="Times,serif" font-size="14.00">PrismaAccountRepository</text>
</g>
<!-- PrismaAccountRepository&#45;&gt;PaymentModule -->
<g id="edge3" class="edge">
<title>PrismaAccountRepository&#45;&gt;PaymentModule</title>
<path fill="none" stroke="black" d="M535,-122.11C535,-122.11 535,-140.99 535,-140.99"/>
<polygon fill="black" stroke="black" points="531.5,-140.99 535,-150.99 538.5,-140.99 531.5,-140.99"/>
</g>
<!-- PrismaPaymentRepository -->
<g id="node5" class="node">
<title>PrismaPaymentRepository</title>
<ellipse fill="#fdb462" stroke="black" cx="290" cy="-104" rx="114.06" ry="18"/>
<text text-anchor="middle" x="290" y="-99.8" font-family="Times,serif" font-size="14.00">PrismaPaymentRepository</text>
</g>
<!-- PrismaPaymentRepository&#45;&gt;PaymentModule -->
<g id="edge4" class="edge">
<title>PrismaPaymentRepository&#45;&gt;PaymentModule</title>
<path fill="none" stroke="black" d="M290,-122.02C290,-139.37 290,-163 290,-163 290,-163 470.93,-163 470.93,-163"/>
<polygon fill="black" stroke="black" points="470.93,-166.5 480.93,-163 470.93,-159.5 470.93,-166.5"/>
</g>
<!-- PrismaService -->
<g id="node6" class="node">
<title>PrismaService</title>
<ellipse fill="#fdb462" stroke="black" cx="91" cy="-104" rx="66.63" ry="18"/>
<text text-anchor="middle" x="91" y="-99.8" font-family="Times,serif" font-size="14.00">PrismaService</text>
</g>
<!-- PrismaService&#45;&gt;PaymentModule -->
<g id="edge5" class="edge">
<title>PrismaService&#45;&gt;PaymentModule</title>
<path fill="none" stroke="black" d="M91,-122.28C91,-143.32 91,-175 91,-175 91,-175 470.56,-175 470.56,-175"/>
<polygon fill="black" stroke="black" points="470.56,-178.5 480.56,-175 470.56,-171.5 470.56,-178.5"/>
</g>
</g>
</svg>
