<?xml version="1.0" encoding="UTF-8" standalone="no"?>
<!DOCTYPE svg PUBLIC "-//W3C//DTD SVG 1.1//EN"
 "http://www.w3.org/Graphics/SVG/1.1/DTD/svg11.dtd">
<!-- Generated by graphviz version 2.47.0 (20210316.0004)
 -->
<!-- Title: dependencies Pages: 1 -->
<svg width="534pt" height="284pt"
 viewBox="0.00 0.00 534.00 284.00" xmlns="http://www.w3.org/2000/svg" xmlns:xlink="http://www.w3.org/1999/xlink">
<g id="graph0" class="graph" transform="scale(1 1) rotate(0) translate(4 280)">
<title>dependencies</title>
<polygon fill="white" stroke="transparent" points="-4,4 -4,-280 530,-280 530,4 -4,4"/>
<text text-anchor="start" x="242.01" y="-42.4" font-family="Times-12" font-weight="bold" font-size="14.00">Legend</text>
<polygon fill="#ffffb3" stroke="transparent" points="29,-10 29,-30 49,-30 49,-10 29,-10"/>
<text text-anchor="start" x="52.63" y="-15.4" font-family="Times-12" font-size="14.00"> &#160;Declarations</text>
<polygon fill="#8dd3c7" stroke="transparent" points="142,-10 142,-30 162,-30 162,-10 142,-10"/>
<text text-anchor="start" x="165.73" y="-15.4" font-family="Times-12" font-size="14.00"> &#160;Module</text>
<polygon fill="#80b1d3" stroke="transparent" points="228,-10 228,-30 248,-30 248,-10 228,-10"/>
<text text-anchor="start" x="251.78" y="-15.4" font-family="Times-12" font-size="14.00"> &#160;Bootstrap</text>
<polygon fill="#fdb462" stroke="transparent" points="325,-10 325,-30 345,-30 345,-10 325,-10"/>
<text text-anchor="start" x="348.67" y="-15.4" font-family="Times-12" font-size="14.00"> &#160;Providers</text>
<polygon fill="#fb8072" stroke="transparent" points="421,-10 421,-30 441,-30 441,-10 421,-10"/>
<text text-anchor="start" x="444.73" y="-15.4" font-family="Times-12" font-size="14.00"> &#160;Exports</text>
<g id="clust1" class="cluster">
<title>cluster_DatabaseModule</title>
<polygon fill="none" stroke="black" stroke-dasharray="1,5" points="8,-70 8,-268 518,-268 518,-70 8,-70"/>
</g>
<g id="clust3" class="cluster">
<title>cluster_DatabaseModule_imports</title>
<polygon fill="none" stroke="black" points="388,-78 388,-130 510,-130 510,-78 388,-78"/>
</g>
<g id="clust6" class="cluster">
<title>cluster_DatabaseModule_providers</title>
<polygon fill="none" stroke="black" points="16,-78 16,-130 380,-130 380,-78 16,-78"/>
</g>
<g id="clust4" class="cluster">
<title>cluster_DatabaseModule_exports</title>
<polygon fill="none" stroke="black" points="224,-208 224,-260 386,-260 386,-208 224,-208"/>
</g>
<!-- AccountModule -->
<g id="node1" class="node">
<title>AccountModule</title>
<polygon fill="#8dd3c7" stroke="black" points="502.48,-122 499.48,-126 478.48,-126 475.48,-122 395.52,-122 395.52,-86 502.48,-86 502.48,-122"/>
<text text-anchor="middle" x="449" y="-99.8" font-family="Times,serif" font-size="14.00">AccountModule</text>
</g>
<!-- DatabaseModule -->
<g id="node2" class="node">
<title>DatabaseModule</title>
<polygon fill="#8dd3c7" stroke="black" points="360.35,-187 357.35,-191 336.35,-191 333.35,-187 249.65,-187 249.65,-151 360.35,-151 360.35,-187"/>
<text text-anchor="middle" x="305" y="-164.8" font-family="Times,serif" font-size="14.00">DatabaseModule</text>
</g>
<!-- AccountModule&#45;&gt;DatabaseModule -->
<g id="edge1" class="edge">
<title>AccountModule&#45;&gt;DatabaseModule</title>
<path fill="none" stroke="black" d="M449,-122.11C449,-141.34 449,-169 449,-169 449,-169 370.67,-169 370.67,-169"/>
<polygon fill="black" stroke="black" points="370.67,-165.5 360.67,-169 370.67,-172.5 370.67,-165.5"/>
</g>
<!-- PrismaUserRepository  -->
<g id="node3" class="node">
<title>PrismaUserRepository </title>
<polygon fill="#fb8072" stroke="black" points="378.25,-252 231.75,-252 231.75,-216 378.25,-216 378.25,-252"/>
<text text-anchor="middle" x="305" y="-229.8" font-family="Times,serif" font-size="14.00">PrismaUserRepository </text>
</g>
<!-- DatabaseModule&#45;&gt;PrismaUserRepository  -->
<g id="edge2" class="edge">
<title>DatabaseModule&#45;&gt;PrismaUserRepository </title>
<path fill="none" stroke="black" stroke-dasharray="5,2" d="M305,-187.11C305,-187.11 305,-205.99 305,-205.99"/>
<polygon fill="black" stroke="black" points="301.5,-205.99 305,-215.99 308.5,-205.99 301.5,-205.99"/>
</g>
<!-- PrismaService -->
<g id="node4" class="node">
<title>PrismaService</title>
<ellipse fill="#fdb462" stroke="black" cx="305" cy="-104" rx="66.63" ry="18"/>
<text text-anchor="middle" x="305" y="-99.8" font-family="Times,serif" font-size="14.00">PrismaService</text>
</g>
<!-- PrismaService&#45;&gt;DatabaseModule -->
<g id="edge3" class="edge">
<title>PrismaService&#45;&gt;DatabaseModule</title>
<path fill="none" stroke="black" d="M305,-122.11C305,-122.11 305,-140.99 305,-140.99"/>
<polygon fill="black" stroke="black" points="301.5,-140.99 305,-150.99 308.5,-140.99 301.5,-140.99"/>
</g>
<!-- PrismaUserRepository -->
<g id="node5" class="node">
<title>PrismaUserRepository</title>
<ellipse fill="#fdb462" stroke="black" cx="122" cy="-104" rx="98.43" ry="18"/>
<text text-anchor="middle" x="122" y="-99.8" font-family="Times,serif" font-size="14.00">PrismaUserRepository</text>
</g>
<!-- PrismaUserRepository&#45;&gt;DatabaseModule -->
<g id="edge4" class="edge">
<title>PrismaUserRepository&#45;&gt;DatabaseModule</title>
<path fill="none" stroke="black" d="M122,-122.11C122,-141.34 122,-169 122,-169 122,-169 239.6,-169 239.6,-169"/>
<polygon fill="black" stroke="black" points="239.6,-172.5 249.6,-169 239.6,-165.5 239.6,-172.5"/>
</g>
</g>
</svg>
