<?xml version="1.0" encoding="UTF-8" standalone="no"?>
<!DOCTYPE svg PUBLIC "-//W3C//DTD SVG 1.1//EN"
 "http://www.w3.org/Graphics/SVG/1.1/DTD/svg11.dtd">
<!-- Generated by graphviz version 2.47.0 (20210316.0004)
 -->
<!-- Title: dependencies Pages: 1 -->
<svg width="898pt" height="284pt"
 viewBox="0.00 0.00 898.00 284.00" xmlns="http://www.w3.org/2000/svg" xmlns:xlink="http://www.w3.org/1999/xlink">
<g id="graph0" class="graph" transform="scale(1 1) rotate(0) translate(4 280)">
<title>dependencies</title>
<polygon fill="white" stroke="transparent" points="-4,4 -4,-280 894,-280 894,4 -4,4"/>
<text text-anchor="start" x="424.01" y="-42.4" font-family="Times-12" font-weight="bold" font-size="14.00">Legend</text>
<polygon fill="#ffffb3" stroke="transparent" points="211,-10 211,-30 231,-30 231,-10 211,-10"/>
<text text-anchor="start" x="234.63" y="-15.4" font-family="Times-12" font-size="14.00"> &#160;Declarations</text>
<polygon fill="#8dd3c7" stroke="transparent" points="324,-10 324,-30 344,-30 344,-10 324,-10"/>
<text text-anchor="start" x="347.73" y="-15.4" font-family="Times-12" font-size="14.00"> &#160;Module</text>
<polygon fill="#80b1d3" stroke="transparent" points="410,-10 410,-30 430,-30 430,-10 410,-10"/>
<text text-anchor="start" x="433.78" y="-15.4" font-family="Times-12" font-size="14.00"> &#160;Bootstrap</text>
<polygon fill="#fdb462" stroke="transparent" points="507,-10 507,-30 527,-30 527,-10 507,-10"/>
<text text-anchor="start" x="530.67" y="-15.4" font-family="Times-12" font-size="14.00"> &#160;Providers</text>
<polygon fill="#fb8072" stroke="transparent" points="603,-10 603,-30 623,-30 623,-10 603,-10"/>
<text text-anchor="start" x="626.73" y="-15.4" font-family="Times-12" font-size="14.00"> &#160;Exports</text>
<g id="clust1" class="cluster">
<title>cluster_AccountModule</title>
<polygon fill="none" stroke="black" stroke-dasharray="1,5" points="8,-70 8,-268 882,-268 882,-70 8,-70"/>
</g>
<g id="clust4" class="cluster">
<title>cluster_AccountModule_exports</title>
<polygon fill="none" stroke="black" points="232,-208 232,-260 582,-260 582,-208 232,-208"/>
</g>
<g id="clust6" class="cluster">
<title>cluster_AccountModule_providers</title>
<polygon fill="none" stroke="black" points="16,-78 16,-130 874,-130 874,-78 16,-78"/>
</g>
<!-- CreateAccountUseCase  -->
<g id="node1" class="node">
<title>CreateAccountUseCase </title>
<polygon fill="#fb8072" stroke="black" points="574.43,-252 421.57,-252 421.57,-216 574.43,-216 574.43,-252"/>
<text text-anchor="middle" x="498" y="-229.8" font-family="Times,serif" font-size="14.00">CreateAccountUseCase </text>
</g>
<!-- GetAccountByIdUseCase  -->
<g id="node2" class="node">
<title>GetAccountByIdUseCase </title>
<polygon fill="#fb8072" stroke="black" points="404.11,-252 239.89,-252 239.89,-216 404.11,-216 404.11,-252"/>
<text text-anchor="middle" x="322" y="-229.8" font-family="Times,serif" font-size="14.00">GetAccountByIdUseCase </text>
</g>
<!-- AccountModule -->
<g id="node3" class="node">
<title>AccountModule</title>
<polygon fill="#8dd3c7" stroke="black" points="463.48,-187 460.48,-191 439.48,-191 436.48,-187 356.52,-187 356.52,-151 463.48,-151 463.48,-187"/>
<text text-anchor="middle" x="410" y="-164.8" font-family="Times,serif" font-size="14.00">AccountModule</text>
</g>
<!-- AccountModule&#45;&gt;CreateAccountUseCase  -->
<g id="edge1" class="edge">
<title>AccountModule&#45;&gt;CreateAccountUseCase </title>
<path fill="none" stroke="black" stroke-dasharray="5,2" d="M442.64,-187.11C442.64,-187.11 442.64,-205.99 442.64,-205.99"/>
<polygon fill="black" stroke="black" points="439.14,-205.99 442.64,-215.99 446.14,-205.99 439.14,-205.99"/>
</g>
<!-- AccountModule&#45;&gt;GetAccountByIdUseCase  -->
<g id="edge2" class="edge">
<title>AccountModule&#45;&gt;GetAccountByIdUseCase </title>
<path fill="none" stroke="black" stroke-dasharray="5,2" d="M380.28,-187.11C380.28,-187.11 380.28,-205.99 380.28,-205.99"/>
<polygon fill="black" stroke="black" points="376.78,-205.99 380.28,-215.99 383.78,-205.99 376.78,-205.99"/>
</g>
<!-- CreateAccountUseCase -->
<g id="node4" class="node">
<title>CreateAccountUseCase</title>
<ellipse fill="#fdb462" stroke="black" cx="763" cy="-104" rx="102.96" ry="18"/>
<text text-anchor="middle" x="763" y="-99.8" font-family="Times,serif" font-size="14.00">CreateAccountUseCase</text>
</g>
<!-- CreateAccountUseCase&#45;&gt;AccountModule -->
<g id="edge3" class="edge">
<title>CreateAccountUseCase&#45;&gt;AccountModule</title>
<path fill="none" stroke="black" d="M763,-122.11C763,-141.34 763,-169 763,-169 763,-169 473.61,-169 473.61,-169"/>
<polygon fill="black" stroke="black" points="473.61,-165.5 463.61,-169 473.61,-172.5 473.61,-165.5"/>
</g>
<!-- GetAccountByIdUseCase -->
<g id="node5" class="node">
<title>GetAccountByIdUseCase</title>
<ellipse fill="#fdb462" stroke="black" cx="531" cy="-104" rx="110.57" ry="18"/>
<text text-anchor="middle" x="531" y="-99.8" font-family="Times,serif" font-size="14.00">GetAccountByIdUseCase</text>
</g>
<!-- GetAccountByIdUseCase&#45;&gt;AccountModule -->
<g id="edge4" class="edge">
<title>GetAccountByIdUseCase&#45;&gt;AccountModule</title>
<path fill="none" stroke="black" d="M441.85,-114.73C441.85,-114.73 441.85,-140.87 441.85,-140.87"/>
<polygon fill="black" stroke="black" points="438.35,-140.87 441.85,-150.87 445.35,-140.87 438.35,-140.87"/>
</g>
<!-- PrismaAccountRepository -->
<g id="node6" class="node">
<title>PrismaAccountRepository</title>
<ellipse fill="#fdb462" stroke="black" cx="289" cy="-104" rx="112.9" ry="18"/>
<text text-anchor="middle" x="289" y="-99.8" font-family="Times,serif" font-size="14.00">PrismaAccountRepository</text>
</g>
<!-- PrismaAccountRepository&#45;&gt;AccountModule -->
<g id="edge5" class="edge">
<title>PrismaAccountRepository&#45;&gt;AccountModule</title>
<path fill="none" stroke="black" d="M379.23,-115.03C379.23,-115.03 379.23,-140.78 379.23,-140.78"/>
<polygon fill="black" stroke="black" points="375.73,-140.78 379.23,-150.78 382.73,-140.78 375.73,-140.78"/>
</g>
<!-- PrismaService -->
<g id="node7" class="node">
<title>PrismaService</title>
<ellipse fill="#fdb462" stroke="black" cx="91" cy="-104" rx="66.63" ry="18"/>
<text text-anchor="middle" x="91" y="-99.8" font-family="Times,serif" font-size="14.00">PrismaService</text>
</g>
<!-- PrismaService&#45;&gt;AccountModule -->
<g id="edge6" class="edge">
<title>PrismaService&#45;&gt;AccountModule</title>
<path fill="none" stroke="black" d="M91,-122.11C91,-141.34 91,-169 91,-169 91,-169 346.25,-169 346.25,-169"/>
<polygon fill="black" stroke="black" points="346.25,-172.5 356.25,-169 346.25,-165.5 346.25,-172.5"/>
</g>
</g>
</svg>
